<?xml version="1.0" encoding="UTF-8"?>
<svg width="42px" height="41px" viewBox="0 0 42 41" version="1.1" xmlns="http://www.w3.org/2000/svg" xmlns:xlink="http://www.w3.org/1999/xlink">
    <!-- Generator: Sketch 49.3 (51167) - http://www.bohemiancoding.com/sketch -->
    <title>airbnb</title>
    <desc>Created with Sketch.</desc>
    <defs></defs>
    <g id="Welcome" stroke="none" stroke-width="1" fill="none" fill-rule="evenodd">
        <g id="Desktop-Copy-2" transform="translate(-50.000000, -238.000000)">
            <g id="Group-8-Copy-3" transform="translate(32.821342, 223.570517)">
                <g id="Group-18" transform="translate(17.700280, 10.000000)">
                    <g id="airbnb" transform="translate(0.067299, 4.500000)">
                        <rect id="Rectangle-3-Copy-2" fill="#FF5A5F" x="0.312655087" y="0.105609293" width="40.6451613" height="40.6451613" rx="20.3225806"></rect>
                        <path d="M32.3543023,24.9885693 C31.0180023,22.0718103 29.5182138,18.904135 27.6339836,15.019855 C26.8385944,13.3811981 25.9015081,11.4817244 24.8454068,9.67654077 C24.1358215,8.46376077 23.0315275,7.62442188 21.7357199,7.312636 C20.4628037,7.00671707 19.1346755,7.23966596 17.9957561,7.96837115 C16.8895763,8.67675159 16.2595614,9.73940083 15.7892634,10.6853923 L14.6919887,12.885599 C13.4569458,15.3594041 12.1800485,17.9174417 10.9585729,20.4518019 L10.9304954,20.5100523 C10.0708318,22.2934968 9.1818858,24.1377584 8.49901607,26.0348749 C7.45622013,28.9324616 8.82505022,32.1027037 11.682616,33.4095642 C13.8683125,34.409563 16.1286029,34.1237592 18.4013082,32.5578105 C19.0168129,32.1345004 19.5823439,31.6382726 20.1810335,31.1125531 C20.3391266,30.9741038 20.5009388,30.8319353 20.668618,30.6869381 C20.7350402,30.7767232 20.8124628,30.8656178 20.906229,30.9437214 C21.1021953,31.106948 21.2958566,31.2744177 21.4897275,31.4423064 C22.0970604,31.968026 22.7252419,32.5120274 23.4343033,32.9329803 C24.6332541,33.6452895 25.8348765,34.001706 27.0072165,34.001706 C28.1686084,34.001706 29.3009275,33.6518374 30.371801,32.9521526 C32.964202,31.2584931 33.7610056,28.0582877 32.3543023,24.9885693 Z M20.6150298,26.2902963 C19.5673099,24.8146041 18.6391288,23.3800852 18.5345715,21.6191132 C18.4751688,20.6181716 18.7990552,19.9813468 19.5540045,19.6153441 C19.9310077,19.4324738 20.2972199,19.3410124 20.6512791,19.3410124 C21.1304823,19.3410124 21.587213,19.5084297 22.0170186,19.8426356 C22.6875259,20.3636931 22.8654722,21.1050227 22.61267,22.3211028 C22.3042367,23.8042859 21.4901466,25.0961648 20.6150298,26.2902963 Z M29.9903976,29.2743679 C29.6015034,30.1218786 28.8400062,30.7584414 27.900615,31.0213536 C27.7043869,31.0760942 27.4836433,31.0980429 27.2500135,31.1209868 C27.142418,31.1317254 27.034613,31.1425163 26.9277509,31.1560836 C25.6216237,31.1280061 24.6066434,30.483481 23.4878391,29.5251271 C23.3900918,29.4418899 23.2829677,29.3567669 23.1737484,29.270701 C22.9162841,29.067244 22.5280709,28.7604345 22.4950693,28.5789261 C22.4939169,28.4479677 22.7764205,28.0854747 22.928437,27.8904514 C23.0332038,27.7561928 23.1361371,27.62382 23.2224126,27.4961617 C24.0682994,26.2478134 25.0874704,24.5480775 25.4625878,22.469505 C25.9445673,19.8029814 24.4151297,17.3197997 21.9046039,16.6937659 C19.2544763,16.0326353 16.6185447,17.4620206 15.9041401,19.9489215 C15.4833968,21.4138227 15.6368277,22.9648422 16.3482464,24.4339865 C17.010058,25.8016117 17.8445253,27.0963193 18.6569391,28.3572921 C18.7243041,28.4615874 18.7532721,28.5224045 18.7659489,28.5546726 C18.7521721,28.5687114 18.7296996,28.5888266 18.6946028,28.6150183 C18.3770023,28.8531007 18.0671546,29.1070554 17.7572546,29.3615338 C17.0825566,29.9153309 16.4452604,30.4382218 15.7303845,30.7979385 C14.8833452,31.2240249 13.9567356,31.2937472 13.1209064,30.9948476 C12.2860201,30.695948 11.6190225,30.0636283 11.2427527,29.2137603 C10.8447438,28.3156997 10.8613493,27.3989905 11.2916264,26.4883055 C13.1503983,22.5546803 15.0629154,18.5413801 17.1382402,14.2190703 C17.424463,13.6229474 17.7436873,13.0247292 18.0524349,12.4461548 C18.2427961,12.0892669 18.4334192,11.7324313 18.6181754,11.3729765 C19.0536384,10.5261468 19.8040827,10.0228997 20.6289638,10.0228997 C20.6352498,10.0228997 20.6417977,10.0228997 20.6483981,10.0228997 C21.4582975,10.0306 22.1855883,10.5322757 22.5934453,11.3648047 L23.3604951,12.9279771 C25.5450392,17.3800406 27.8041249,21.9836491 29.941681,26.5487035 C30.364834,27.4525787 30.3821205,28.4207807 29.9903976,29.2743679 Z" id="Shape" fill="#FF5A5F" fill-rule="nonzero"></path>
                        <path d="M31.4833763,25.3875735 C30.1501145,22.4773625 28.6531547,19.3157112 26.7721723,15.4380315 C25.9847453,13.8157183 25.0575071,11.9359407 24.0184304,10.1601965 C23.4419513,9.174708 22.5516434,8.49414313 21.5116238,8.24411726 C20.4947576,7.99927734 19.4290701,8.18822419 18.5120991,8.77523234 C17.6028284,9.35757837 17.0588794,10.2831927 16.6467793,11.1122644 L15.5490332,13.313414 C14.3154046,15.7844428 13.0399217,18.3393898 11.8214843,20.8679355 L11.7934068,20.9259239 C10.9442198,22.6873674 10.0663268,24.509209 9.40027211,26.3595471 C8.52772216,28.784269 9.67994698,31.440473 12.0810439,32.5386906 C13.9648027,33.40024 15.8546902,33.1485902 17.8579354,31.7692835 C18.4271856,31.377351 18.9470383,30.9208299 19.5492376,30.392753 C19.8387605,30.138327 20.1411698,29.8735814 20.466942,29.5999306 L20.8673082,29.2636293 L21.1670983,29.6920729 C21.2155005,29.7608523 21.261336,29.8361272 21.3076429,29.913288 C21.3773128,30.0297362 21.4496018,30.1494846 21.5190622,30.207473 C21.7199525,30.3749427 21.918014,30.5465506 22.1165994,30.718211 C22.7187987,31.2392684 23.2875775,31.731777 23.9234069,32.1097231 C26.0036033,33.3459184 27.9973148,33.3594857 29.8478624,32.150425 C32.0612697,30.7042246 32.703228,28.049854 31.4833763,25.3875735 Z M20.6150298,26.2902963 C19.5673099,24.8146041 18.6391288,23.3800852 18.5345715,21.6191132 C18.4751688,20.6181716 18.7990552,19.9813468 19.5540045,19.6153441 C19.9310077,19.4324738 20.2972199,19.3410124 20.6512791,19.3410124 C21.1304823,19.3410124 21.587213,19.5084297 22.0170186,19.8426356 C22.6875259,20.3636931 22.8654722,21.1050227 22.61267,22.3211028 C22.3042367,23.8042859 21.4901466,25.0961648 20.6150298,26.2902963 Z M29.9903976,29.2743679 C29.6015034,30.1218786 28.8400062,30.7584414 27.900615,31.0213536 C27.7043869,31.0760942 27.4836433,31.0980429 27.2500135,31.1209868 C27.142418,31.1317254 27.034613,31.1425163 26.9277509,31.1560836 C25.6216237,31.1280061 24.6066434,30.483481 23.4878391,29.5251271 C23.3900918,29.4418899 23.2829677,29.3567669 23.1737484,29.270701 C22.9162841,29.067244 22.5280709,28.7604345 22.4950693,28.5789261 C22.4939169,28.4479677 22.7764205,28.0854747 22.928437,27.8904514 C23.0332038,27.7561928 23.1361371,27.62382 23.2224126,27.4961617 C24.0682994,26.2478134 25.0874704,24.5480775 25.4625878,22.469505 C25.9445673,19.8029814 24.4151297,17.3197997 21.9046039,16.6937659 C19.2544763,16.0326353 16.6185447,17.4620206 15.9041401,19.9489215 C15.4833968,21.4138227 15.6368277,22.9648422 16.3482464,24.4339865 C17.010058,25.8016117 17.8445253,27.0963193 18.6569391,28.3572921 C18.7243041,28.4615874 18.7532721,28.5224045 18.7659489,28.5546726 C18.7521721,28.5687114 18.7296996,28.5888266 18.6946028,28.6150183 C18.3770023,28.8531007 18.0671546,29.1070554 17.7572546,29.3615338 C17.0825566,29.9153309 16.4452604,30.4382218 15.7303845,30.7979385 C14.8833452,31.2240249 13.9567356,31.2937472 13.1209064,30.9948476 C12.2860201,30.695948 11.6190225,30.0636283 11.2427527,29.2137603 C10.8447438,28.3156997 10.8613493,27.3989905 11.2916264,26.4883055 C13.1503983,22.5546803 15.0629154,18.5413801 17.1382402,14.2190703 C17.424463,13.6229474 17.7436873,13.0247292 18.0524349,12.4461548 C18.2427961,12.0892669 18.4334192,11.7324313 18.6181754,11.3729765 C19.0536384,10.5261468 19.8040827,10.0228997 20.6289638,10.0228997 C20.6352498,10.0228997 20.6417977,10.0228997 20.6483981,10.0228997 C21.4582975,10.0306 22.1855883,10.5322757 22.5934453,11.3648047 L23.3604951,12.9279771 C25.5450392,17.3800406 27.8041249,21.9836491 29.941681,26.5487035 C30.364834,27.4525787 30.3821205,28.4207807 29.9903976,29.2743679 Z" id="Shape" fill="#FFFFFF" fill-rule="nonzero"></path>
                        <g id="Group" transform="translate(9.962451, 9.014834)" fill-rule="nonzero">
                            <path d="M12.6425191,10.0714905 C11.5983088,9.25928617 10.3983628,9.14399035 9.17337743,9.73848933 C8.40580377,10.1110399 7.51245761,10.920206 7.61607194,12.6613248 C7.74655893,14.8620029 8.92267057,16.5051124 10.1679807,18.2455502 L10.6328831,18.8952088 L11.0257585,18.3765086 C12.1059562,16.949952 13.1934351,15.3984611 13.5879867,13.5009256 C13.7952154,12.5050651 13.9224546,11.0663556 12.6425191,10.0714905 Z M12.6502195,13.3062689 C12.3417338,14.7894519 11.527696,16.0812785 10.6525269,17.27541 C9.60480694,15.7997178 8.67662584,14.3651989 8.57206861,12.6042269 C8.51266586,11.6032853 8.8365523,10.9664605 9.59150156,10.6004578 C9.96850474,10.4175875 10.334717,10.3261261 10.6887762,10.3261261 C11.1679794,10.3261261 11.6247101,10.4935434 12.0545157,10.8277493 C12.7250753,11.3488592 12.9030741,12.0901888 12.6502195,13.3062689 Z" id="Shape" fill="#FF5A5F"></path>
                            <path d="M20.8466993,17.1276365 C18.7054239,12.5546722 16.4444524,7.94682059 14.257813,3.49103795 L13.4909727,1.92812743 C12.9200986,0.763487757 11.8749455,0.0614457042 10.6949051,0.0499737441 C9.48793962,0.0555787657 8.4116707,0.737557984 7.80386635,1.91969371 C7.62099597,2.27516732 7.43293964,2.6276027 7.24467378,2.98024761 C6.9313164,3.56772721 6.60716805,4.17506012 6.31224962,4.78967431 C4.23603437,9.11360799 2.32273143,13.1285845 0.462859542,17.064043 C-0.083918174,18.2211919 -0.104033392,19.4391579 0.404137773,20.5869825 C0.887793517,21.6786521 1.75117638,22.4934232 2.83540757,22.8816364 C3.2825521,23.0416152 3.74818796,23.1211332 4.21686205,23.1211332 C4.88595496,23.1211332 5.56133387,22.959321 6.19863007,22.6388918 C7.0085295,22.2310348 7.71711948,21.6491603 8.402556,21.0869818 C8.70145556,20.84188 9.00030274,20.5963067 9.30669313,20.3662389 C10.1072159,19.7666064 9.66588596,19.0813794 9.49401609,18.8143289 C8.70260799,17.5865672 7.88432722,16.3171084 7.24776439,15.0018665 C6.63246922,13.7305743 6.5026632,12.4508483 6.86211795,11.1985189 C7.43367301,9.21020294 9.56373837,8.07269786 11.7101473,8.60826553 C13.724655,9.11062214 14.9486974,11.1208867 14.5576555,13.2843727 C14.2896621,14.7684462 13.6448751,16.2057937 12.4671396,17.9438743 C12.3920742,18.0547175 12.3018176,18.1698038 12.2108277,18.2862521 C11.8791885,18.7113956 11.5033901,19.193637 11.5864178,19.7128086 L11.5864178,19.7137515 C11.6750505,20.2628865 12.1757832,20.6585382 12.6175322,21.0074639 C12.7164845,21.0855675 12.8134985,21.1623091 12.9021311,21.2380555 C14.0155399,22.1917473 15.2810176,23.0771836 16.9863585,23.0996036 L17.0219268,23.1000751 L17.0570237,23.095413 C17.1643572,23.0809028 17.2728956,23.0701642 17.3813816,23.0593732 C17.6458652,23.033653 17.919516,23.0065184 18.1964146,22.9288862 C19.4071516,22.5902277 20.3921687,21.7633036 20.898716,20.6594811 C21.4096111,19.545339 21.3911197,18.2913332 20.8466993,17.1276365 Z M20.027947,20.259534 C19.6390528,21.1070447 18.8775556,21.7436075 17.9381645,22.0065197 C17.7419364,22.0612603 17.5211928,22.0832089 17.2875629,22.1061529 C17.1799675,22.1168914 17.0721625,22.1276824 16.9653004,22.1412497 C15.6591732,22.1131722 14.6441928,21.4686471 13.5253886,20.5102932 C13.4276412,20.427056 13.3205172,20.341933 13.2112979,20.2558671 C12.9538335,20.0524101 12.5656203,19.7456006 12.5326188,19.5640922 C12.5314664,19.4331338 12.8139699,19.0706408 12.9659865,18.8756175 C13.0707532,18.7413589 13.1736866,18.6089861 13.259962,18.4813278 C14.1058488,17.2329794 15.1250199,15.5332435 15.5001372,13.454671 C15.9821167,10.7881475 14.4526792,8.30496576 11.9421533,7.67893199 C9.29202578,7.01780136 6.65609412,8.44718664 5.94168959,10.9340876 C5.52094629,12.3989888 5.67437721,13.9500083 6.38579588,15.4191525 C7.0476075,16.7867778 7.88207474,18.0814854 8.69448857,19.3424581 C8.7618536,19.4467534 8.79082161,19.5075705 8.80349838,19.5398387 C8.78972155,19.5538775 8.76724909,19.5739927 8.73215222,19.6001844 C8.41455179,19.8382668 8.1047041,20.0922214 7.79480403,20.3466999 C7.1201061,20.900497 6.4828099,21.4233879 5.76793392,21.7831046 C4.92089467,22.209191 3.99428507,22.2789132 3.15845587,21.9800137 C2.32356957,21.6811141 1.65657199,21.0487943 1.28030218,20.1989264 C0.882293262,19.3008657 0.898898793,18.3841566 1.32917587,17.4734715 C3.18794771,13.5398464 5.1004649,9.52654617 7.17578963,5.20423637 C7.46201242,4.60811352 7.78123673,4.00989532 8.08998437,3.43132089 C8.28034557,3.07443293 8.47096869,2.71759735 8.65572487,2.3581426 C9.0911879,1.51131288 9.8416322,1.00806576 10.6665133,1.00806576 C10.6727993,1.00806576 10.6793472,1.00806576 10.6859475,1.00806576 C11.4958469,1.01576611 12.2231378,1.51744174 12.6309948,2.34997079 L13.3980446,3.91314322 C15.5825887,8.36520665 17.8416743,12.9688152 19.9792305,17.5338696 C20.4023834,18.4377448 20.4196699,19.4059468 20.027947,20.259534 Z" id="Shape" fill="#FFFFFF"></path>
                        </g>
                    </g>
                </g>
            </g>
        </g>
    </g>
</svg>