<?xml version="1.0" encoding="UTF-8"?>
<svg width="41px" height="42px" viewBox="0 0 41 42" version="1.1" xmlns="http://www.w3.org/2000/svg" xmlns:xlink="http://www.w3.org/1999/xlink">
    <!-- Generator: Sketch 49.3 (51167) - http://www.bohemiancoding.com/sketch -->
    <title>Group 3</title>
    <desc>Created with Sketch.</desc>
    <defs></defs>
    <g id="Welcome" stroke="none" stroke-width="1" fill="none" fill-rule="evenodd">
        <g id="Desktop-Copy-3" transform="translate(-380.000000, -41.000000)">
            <g id="Group-3" transform="translate(379.000000, 40.000000)">
                <g id="airbnb-copy-3" transform="translate(0.849559, 0.738946)" fill="#FF00BF">
                    <rect id="Rectangle-3-Copy-2" x="0.230769231" y="0.816044954" width="40.6500015" height="40.6500015" rx="20.3250008"></rect>
                </g>
                <path d="M8.34955881,14.2333424 L12.6033605,14.2333424 L12.6033605,25.6484843 C12.6033605,27.4595811 13.4221797,28.5282811 14.0883612,28.9862532 C13.3944381,29.5899718 11.2917889,30.1312277 9.70271317,28.8266654 C8.77283915,28.0633293 8.34955881,26.7934588 8.34955881,25.6068128 L8.34955881,14.2333424 Z M34.9200709,23.7193232 L34.9200709,22.5188657 L36.2246627,22.5188657 L36.2246627,18.3205766 L34.7951748,18.3205766 C34.2469392,15.787756 31.9986025,13.9072166 29.3061942,13.9072166 C26.2112673,13.9072166 23.6923175,16.426196 23.6923175,19.5210933 L23.6923175,29.3262497 C24.5735994,29.4511754 25.6283991,29.312379 26.5235519,28.5559931 C27.4534259,27.7927162 27.8767358,26.5228161 27.8767358,25.3361701 L27.8767358,24.9684616 L30.0001172,24.9684616 L30.0001172,20.7632223 L27.8767358,20.7632223 L27.8767358,19.4933222 C27.8767358,18.7022446 28.5151462,18.0638342 29.3061942,18.0638342 C30.0972718,18.0638342 30.7356821,18.7022446 30.7356821,19.4933222 L30.7356821,23.705482 C30.7356821,26.8073295 33.2546615,29.3262497 36.3495588,29.3262497 L36.3495588,25.1349996 C35.5584812,25.1349996 34.9200709,24.5035098 34.9200709,23.7193232 Z M18.8278765,18.3067354 L18.8278765,24.4896094 C18.8278765,24.8365857 18.5295218,25.1210992 18.1755953,25.1210992 C17.8216984,25.1210992 17.5302348,24.8365857 17.5302348,24.4896094 L17.5302348,18.3067354 L13.3250547,18.3067354 L13.3250547,25.5582207 C13.3250547,26.8628422 13.7622058,28.5143808 15.7884918,29.0556662 C17.8078277,29.5899718 18.9666434,28.4727685 18.9666434,28.4727685 C18.8556476,29.2083038 18.1755953,29.7495892 17.0583624,29.8606145 C16.2118017,29.9438392 15.1361811,29.6593257 14.6018459,29.4372751 L14.6018459,33.2816968 C15.9689006,33.6911064 17.4122593,33.8228935 18.8417768,33.5384096 C21.4162689,33.0457458 23.0400068,30.8945637 23.0400068,28.021717 L23.0400068,18.2789347 L18.8278765,18.2789347 L18.8278765,18.3067354 Z" id="lyft-seeklogo.com" fill="#FFFFFF"></path>
            </g>
        </g>
    </g>
</svg>