<?xml version="1.0" encoding="UTF-8"?>
<svg width="41px" height="42px" viewBox="0 0 41 42" version="1.1" xmlns="http://www.w3.org/2000/svg" xmlns:xlink="http://www.w3.org/1999/xlink">
    <!-- Generator: Sketch 49.3 (51167) - http://www.bohemiancoding.com/sketch -->
    <title>Group 2</title>
    <desc>Created with Sketch.</desc>
    <defs></defs>
    <g id="Welcome" stroke="none" stroke-width="1" fill="none" fill-rule="evenodd">
        <g id="Desktop-Copy-3" transform="translate(-339.000000, -41.000000)">
            <g id="Group-2" transform="translate(338.000000, 40.000000)">
                <g id="airbnb-copy-2" transform="translate(0.849559, 0.738946)" fill="#000000">
                    <rect id="Rectangle-3-Copy-2" x="0.230769231" y="0.816044954" width="40.6500015" height="40.6500015" rx="20.3250008"></rect>
                </g>
                <g id="palantir-logo-01" transform="translate(11.349559, 9.040533)" fill="#FFFFFF" fill-rule="nonzero">
                    <path d="M10.1365079,0.13968254 C6.29818813,0.120400717 2.82707977,2.41770858 1.34483851,5.95833445 C-0.137402753,9.49896032 0.661815291,13.58399 3.36910859,16.3049519 C6.0764019,19.0259138 10.1573548,19.8456941 13.7054005,18.3813025 C17.2534461,16.9169108 19.5682055,13.4574159 19.568254,9.61904762 C19.574998,7.11114794 18.584985,4.70333293 16.8160968,2.92551388 C15.0472085,1.14769484 12.6444098,0.145568489 10.1365079,0.13968254 M10.1365079,16.1809524 C7.48190118,16.1950933 5.08081115,14.6068804 4.0551237,12.1583907 C3.02943626,9.70990086 3.58164935,6.88453111 5.45374681,5.00240781 C7.32584427,3.12028452 10.1482243,2.55298882 12.6021574,3.56558409 C15.0560906,4.57817937 16.6571052,6.97075241 16.6571429,9.62539683 C16.6647352,11.3611843 15.9816011,13.0287112 14.758378,14.2602717 C13.535155,15.4918322 11.872307,16.1862776 10.1365079,16.1904762" id="Shape"></path>
                    <polygon id="Shape" points="18.5650794 18.2634921 10.1365079 21.9238095 1.7047619 18.2634921 0.307936508 20.9619048 10.1365079 25.1714286 19.9650794 20.9619048"></polygon>
                </g>
            </g>
        </g>
    </g>
</svg>