<?xml version="1.0" encoding="UTF-8"?>
<svg width="42px" height="41px" viewBox="0 0 42 41" version="1.1" xmlns="http://www.w3.org/2000/svg" xmlns:xlink="http://www.w3.org/1999/xlink">
    <!-- Generator: Sketch 49.3 (51167) - http://www.bohemiancoding.com/sketch -->
    <title>Group 22</title>
    <desc>Created with Sketch.</desc>
    <defs>
        <rect id="path-1" x="0.992208788" y="0.41799494" width="40.6500015" height="40.6500015" rx="20.3250008"></rect>
    </defs>
    <g id="Welcome" stroke="none" stroke-width="1" fill="none" fill-rule="evenodd">
        <g id="Desktop-Copy-3" transform="translate(-298.000000, -42.000000)">
            <g id="Group-22" transform="translate(297.849559, 41.738946)">
                <g id="Rectangle-3-Copy-2">
                    <use fill="#FFFFFF" fill-rule="evenodd" xlink:href="#path-1"></use>
                    <rect stroke="#EDEDED" stroke-width="2" x="1.99220879" y="1.41799494" width="38.6500015" height="38.6500015" rx="19.3250008"></rect>
                </g>
                <g id="slack" transform="translate(8.091403, 7.517189)" fill-rule="nonzero">
                    <path d="M16.8815936,1.6030279 C16.4862387,0.386050646 15.1781509,-0.281009077 13.9595466,0.114345832 C12.7409424,0.509700742 12.0755097,1.81778859 12.4708646,3.03639282 L18.4662672,21.4846616 C18.8778919,22.6219171 20.1062579,23.2613182 21.2874417,22.9229075 C22.5174348,22.5682269 23.2690972,21.261766 22.8753693,20.0529237 C22.8607265,20.0057414 16.8815936,1.6030279 16.8815936,1.6030279 Z" id="Shape" fill="#FFC107"></path>
                    <path d="M7.59156674,4.62269338 C7.19458485,3.40408915 5.886497,2.73702943 4.66951975,3.13401131 C3.4525425,3.5309932 2.7838558,4.83745407 3.18083769,6.0560583 L9.17624032,24.5027001 C9.58786498,25.6399556 10.8162311,26.2793567 11.9974149,25.940946 C13.2274079,25.5862654 13.9790703,24.2798046 13.5853424,23.0709622 C13.5706996,23.0254069 7.59156674,4.62269338 7.59156674,4.62269338 Z" id="Shape" fill="#4CAF50"></path>
                    <path d="M24.4291303,16.8819495 C25.6477346,16.4865946 26.3131673,15.1785068 25.9178124,13.9599025 C25.5224575,12.7412983 24.2143697,12.0758656 22.9957654,12.4712205 L4.54749663,18.4682501 C3.41024115,18.8798747 2.77084,20.1082408 3.10925079,21.2894246 C3.46393132,22.5194177 4.7703922,23.2710801 5.97923457,22.8773522 C6.02641685,22.8610824 24.4291303,16.8819495 24.4291303,16.8819495 Z" id="Shape" fill="#EC407A"></path>
                    <path d="M8.3920384,22.0931502 C9.59274591,21.7026763 11.1399991,21.199941 12.8011405,20.6597853 C12.4106665,19.4590778 11.9079312,17.9118247 11.3677756,16.2506832 L6.95867349,17.6840482 L8.3920384,22.0931502 Z" id="Shape" fill="#472A49"></path>
                    <path d="M17.6836923,19.0734848 C19.3513416,18.5317021 20.9002217,18.0289669 22.0927943,17.6401198 C21.7023204,16.4394123 21.1995851,14.8905322 20.6594294,13.2293908 L16.2503273,14.6627557 L17.6836923,19.0734848 Z" id="Shape" fill="#CC2027"></path>
                    <path d="M21.4094649,7.59192264 C22.6280691,7.19656773 23.2935018,5.88847988 22.8981469,4.66987565 C22.502792,3.45127143 21.1947042,2.78583868 19.9760999,3.18119359 L1.52945813,9.17659622 C0.390575671,9.58822088 -0.248825479,10.816587 0.0912122823,11.9977708 C0.445892818,13.2277638 1.75235369,13.9777993 2.96119607,13.5856983 C3.00675137,13.5710555 21.4094649,7.59192264 21.4094649,7.59192264 Z" id="Shape" fill="#2196F3"></path>
                    <path d="M5.37237292,12.8014964 C6.57308043,12.4110224 8.12196057,11.9082871 9.78310197,11.3681315 C9.24131932,9.70210913 8.73858407,8.15322899 8.34973706,6.95902939 L3.94063498,8.39239431 L5.37237292,12.8014964 Z" id="Shape" fill="#1A937D"></path>
                    <path d="M14.6640268,9.78345788 C16.3316761,9.24167522 17.8805562,8.73893997 19.0747558,8.35009296 C18.5329732,6.68244365 18.0286109,5.13356351 17.6413909,3.93936391 L13.2306619,5.37272882 L14.6640268,9.78345788 Z" id="Shape" fill="#65863A"></path>
                </g>
            </g>
        </g>
    </g>
</svg>