<?xml version="1.0" encoding="UTF-8"?>
<svg width="42px" height="42px" viewBox="0 0 42 42" version="1.1" xmlns="http://www.w3.org/2000/svg" xmlns:xlink="http://www.w3.org/1999/xlink">
    <!-- Generator: Sketch 49.3 (51167) - http://www.bohemiancoding.com/sketch -->
    <title>Uber</title>
    <desc>Created with Sketch.</desc>
    <defs></defs>
    <g id="Welcome" stroke="none" stroke-width="1" fill="none" fill-rule="evenodd">
        <g id="Desktop-Copy-2" transform="translate(-53.000000, -159.000000)">
            <g id="Group-8" transform="translate(32.171348, 145.324305)">
                <g id="Group-23" transform="translate(20.601457, 10.826538)">
                    <g id="Uber" transform="translate(0.649994, 2.826538)">
                        <rect id="Rectangle-3-Copy-2" fill="#000000" x="0" y="0.432077729" width="41.0142029" height="41.0142029" rx="20.5071014"></rect>
                        <path d="M20.4857065,7.24103447 C13.2251014,7.24103447 7.28242795,12.926968 6.83570048,20.0780307 L16.2067077,20.0780307 L16.2067077,17.5106314 C16.2067077,17.03823 16.590106,16.6548317 17.0625075,16.6548317 L23.9089054,16.6548317 C24.3813069,16.6548317 24.7647052,17.03823 24.7647052,17.5106314 L24.7647052,24.3570294 C24.7647052,24.8294309 24.3813069,25.2128292 23.9089054,25.2128292 L17.0625075,25.2128292 C16.590106,25.2128292 16.2067077,24.8294309 16.2067077,24.3570294 L16.2067077,21.7896302 L6.83570048,21.7896302 C7.28242795,28.9406929 13.2251014,34.6266264 20.4857065,34.6266264 C28.0355718,34.6266264 34.1785024,28.4836958 34.1785024,20.9338304 C34.1785024,13.3839651 28.0355718,7.24103447 20.4857065,7.24103447 Z" fill="#FFFFFF" fill-rule="nonzero"></path>
                    </g>
                </g>
            </g>
        </g>
    </g>
</svg>