<svg xmlns="http://www.w3.org/2000/svg" viewBox="0 0 28.98 25.89"><defs><style>.cls-1{fill:#4f5c6e;}</style></defs><title>Asset 2</title><g id="Layer_2" data-name="Layer 2"><g id="Layer_1-2" data-name="Layer 1"><g id="dQcHby.tif"><path class="cls-1" d="M0,21.76V5.21A4.4,4.4,0,0,1,3.46,2.06c.47-.1.94-.15,1.27-.2L5.52,0H6c.76.18,1.51.37,2.28.54A38.88,38.88,0,0,0,19.83,1.88c.86-.07,1.73,0,2.6,0,1.55,0,2.05.42,2.29,1.94.33.13.77.17,1,.41s.07.66.08,1c1.94.12,2.32.52,2.32,2.53V12c0,.48-.07.94.52,1.22.21.1.34.56.35.86a26.93,26.93,0,0,1,0,3,2.91,2.91,0,0,1-.46,1c-.14.27-.39.52-.39.79,0,1.56-.07,3.12,0,4.67a2.23,2.23,0,0,1-1.28,2.35H4.29l-.56-.17A4.45,4.45,0,0,1,.16,22.17,2.5,2.5,0,0,0,0,21.76ZM1.94,4.4l-.26,0a8.87,8.87,0,0,0-.41,1.86c0,4.67,0,9.34,0,14a11.64,11.64,0,0,0,.1,1.45,3,3,0,0,0,2.27,2.68,6.89,6.89,0,0,0,1.81.2c6,0,11.89,0,17.84,0,.92,0,1.84,0,2.75,0,.61,0,.82-.22.79-.81,0-1,0-1.94,0-2.91V18.32h-.95c-1.12,0-2.25,0-3.37,0s-1.36-.41-1.37-1.43V14.59c0-1.37.33-1.69,1.73-1.69h4V7.56c0-1,0-1-1-1l-19.37,0a14.84,14.84,0,0,1-2.21-.16A2.4,2.4,0,0,1,1.94,4.4Zm22.47.87V5.09L6.25,1.42c-.16,1.05-.27,2-.47,3,0,.25-.38.43-.58.65-.21-.25-.52-.46-.6-.75a3,3,0,0,1,.05-1c-.77-.14-1.29,0-1.41.82s.49,1,1,1.06c1.2.14,2.41.19,3.5.26A10.9,10.9,0,0,1,7.9,4.07c.28-1.31.34-1.33,1.62-1,1.52.33,3,.64,4.55,1a1.83,1.83,0,0,1,.95.4c.16.19,0,.62,0,.86Zm3.36,11.86v-3H22.33v3ZM8.92,5.33h4.82c-1.2-.36-2.41-.63-3.62-.89C9.13,4.22,9.13,4.23,8.92,5.33Z"/></g></g></g></svg>